<?xml version="1.0" encoding="UTF-8"?>
<svg width="37px" height="47px" viewBox="0 0 37 47" version="1.1" xmlns="http://www.w3.org/2000/svg" xmlns:xlink="http://www.w3.org/1999/xlink">
    <title>E96973FD-9862-4969-A398-9BF87DF33CA0@1</title>
    <defs>
        <linearGradient x1="50%" y1="-2.48949813e-15%" x2="50%" y2="100%" id="linearGradient-1">
            <stop stop-color="#FFDCA4" offset="0%"></stop>
            <stop stop-color="#FFDB81" offset="37.7910118%"></stop>
            <stop stop-color="#ED9E2F" offset="100%"></stop>
        </linearGradient>
    </defs>
    <g id="Wakalat-+-Showrooms" stroke="none" stroke-width="1" fill="none" fill-rule="evenodd">
        <g id="Showrooms" transform="translate(-958.000000, -387.000000)">
            <g id="VIP" transform="translate(958.000000, 387.000000)">
                <path d="M0,0 L36.7999978,0 L36.7999978,30.5027765 C36.7999978,31.385082 36.3955679,32.2187065 35.7025798,32.7648112 L20.1825806,44.9952453 C19.1370122,45.8191987 17.6629856,45.8191987 16.6174172,44.9952453 L1.09741805,32.7648112 C0.404429941,32.2187065 -4.92838579e-16,31.385082 0,30.5027765 L0,0 L0,0 Z" id="Rectangle" fill="url(#linearGradient-1)"></path>
                <path d="M9.90769172,24.6499985 L11.8099685,24.6499985 L13.3499069,29.2203983 L13.65563,30.3803982 L13.7688607,30.3803982 L14.0972299,29.2203983 L15.7051068,24.6499985 L17.6073836,24.6499985 L14.6407376,32.955598 L12.7837531,32.955598 L9.90769172,24.6499985 Z M18.558522,24.6499985 L20.3249219,24.6499985 L20.3249219,32.955598 L18.558522,32.955598 L18.558522,24.6499985 Z M21.9554448,32.955598 L21.9554448,24.6499985 L24.8541524,24.6499985 C25.2693339,24.6499985 25.6524275,24.7157312 26.0034446,24.8471985 C26.3544617,24.9786658 26.6582946,25.1623307 26.9149522,25.3981985 C27.1716099,25.6340663 27.3716489,25.9182635 27.5150753,26.2507984 C27.6585016,26.5833334 27.7302137,26.950663 27.7302137,27.3527984 C27.7302137,27.7549337 27.6585016,28.1222633 27.5150753,28.4547983 C27.3716489,28.7873333 27.1716099,29.0715304 26.9149522,29.3073983 C26.6582946,29.5432661 26.3544617,29.7269309 26.0034446,29.8583982 C25.6524275,29.9898655 25.2693339,30.0555982 24.8541524,30.0555982 L23.7218447,30.0555982 L23.7218447,32.955598 L21.9554448,32.955598 Z M24.9107677,28.3387983 C25.2806568,28.3387983 25.5561822,28.2459992 25.7373523,28.0603983 C25.9185224,27.8747974 26.0091061,27.6389331 26.0091061,27.3527984 C26.0091061,27.0666636 25.9185224,26.8307993 25.7373523,26.6451984 C25.5561822,26.4595975 25.2806568,26.3667984 24.9107677,26.3667984 L23.7218447,26.3667984 L23.7218447,28.3387983 L24.9107677,28.3387983 Z" fill="#000000" fill-rule="nonzero"></path>
                <g id="royal-crown-with-simplicity" transform="translate(7.076923, 4.350000)" fill="#000000" fill-rule="nonzero">
                    <path d="M20.3535311,4.24398114 C19.1224648,4.24398114 18.122014,5.25156248 18.122014,6.48885077 C18.122014,7.15247864 18.413868,7.74394372 18.8710791,8.15533905 L16.0565241,9.17249713 L12.0512372,4.37805555 C12.914605,4.0679579 13.5387812,3.24570678 13.5387812,2.27009289 C13.5387812,1.03213017 12.5380624,0.0237395321 11.3079341,0.0237395321 C10.0787439,0.0237395321 9.07708712,1.03213017 9.07708712,2.27009289 C9.07708712,3.23613004 9.69014125,4.05325557 10.539439,4.37090671 L6.52758596,9.17249713 L3.71410301,8.15533905 C4.17091209,7.74380884 4.46236405,7.15234376 4.46236405,6.48885077 C4.46236405,5.25156248 3.46177931,4.24398114 2.23151703,4.24398114 C1.00205875,4.24398114 0,5.25156248 0,6.48885077 C0,7.54296699 0.729232911,8.42429717 1.70341947,8.66479483 L1.70341947,14.7506131 C1.70341947,14.7939107 1.71856157,14.8303293 1.72740563,14.87012 C1.71226353,14.9313572 1.70341947,14.995427 1.70341947,15.0621944 C1.70341947,17.2473106 10.3100294,17.3120548 11.291184,17.3120548 C12.2715346,17.3120548 20.8785466,17.2474455 20.8785466,15.0621944 C20.8785466,14.995427 20.8702385,14.9313572 20.8545604,14.87012 C20.8651465,14.8303293 20.8785466,14.7940456 20.8785466,14.7506131 L20.8785466,8.66479483 C21.8544752,8.42429717 22.5823694,7.54310187 22.5823694,6.48885077 C22.5837081,5.25156248 21.5837933,4.24398114 20.3535311,4.24398114 Z M10.1622264,2.27076731 C10.1622264,1.6347906 10.6766559,1.11697203 11.3083361,1.11697203 C11.9393464,1.11697203 12.4539099,1.6347906 12.4539099,2.27076731 C12.4539099,2.90660913 11.9393464,3.42375328 11.3083361,3.42375328 C10.6766559,3.42375328 10.1622264,2.90674401 10.1622264,2.27076731 Z M6.51673188,10.3312831 C6.72939131,10.4073575 6.96898493,10.3426133 7.11517991,10.1668599 L11.29172,5.16618109 L15.4690642,10.1683436 C15.6147231,10.3426133 15.8535128,10.4073575 16.0669762,10.3319575 L19.7931393,8.98190644 L19.7931393,13.9040829 C17.4470515,12.8527992 12.0560612,12.8143574 11.291184,12.8143574 C10.5263069,12.8143574 5.13424457,12.8527992 2.78882678,13.9040829 L2.78882678,8.98190644 L6.51673188,10.3312831 Z M11.292524,16.2194967 C7.11156189,16.2194967 4.44869596,15.7179991 3.34024049,15.2968921 C3.12222102,15.2144782 2.95927593,15.1332782 2.86185727,15.0621944 C3.20851761,14.8047014 4.33211517,14.4519805 6.2078598,14.2044689 C7.53031471,14.0293899 9.22314811,13.9057015 11.292524,13.9057015 C13.3619,13.9057015 15.0556714,14.0293899 16.3778583,14.2044689 C18.2540049,14.4519805 19.3776025,14.8047014 19.7230568,15.0621944 C19.6255042,15.1354363 19.4637651,15.2144782 19.2460136,15.2968921 C18.1380941,15.7194828 15.4748262,16.2194967 11.292524,16.2194967 Z M1.08755132,6.48885077 C1.08755132,5.85368337 1.60198079,5.33653922 2.23379504,5.33653922 C2.8656093,5.33653922 3.37923476,5.85368337 3.37923476,6.48885077 C3.37923476,7.1246926 2.8654753,7.64264605 2.23379504,7.64264605 C1.60211479,7.64264605 1.08755132,7.1246926 1.08755132,6.48885077 Z M20.3535311,7.64264605 C19.7218508,7.64264605 19.2072873,7.12482748 19.2072873,6.48885077 C19.2072873,5.85368337 19.7218508,5.33653922 20.3535311,5.33653922 C20.9838713,5.33653922 21.4997748,5.85368337 21.4997748,6.48885077 C21.4983008,7.1246926 20.9845413,7.64264605 20.3535311,7.64264605 Z" id="Shape"></path>
                </g>
            </g>
        </g>
    </g>
</svg>